<svg xmlns="http://www.w3.org/2000/svg" viewBox="0 0 1160 560" width="1160" height="560" font-family="Inter Tight, Inter, Helvetica, Arial, sans-serif" role="img" aria-label="Recherches mensuelles sur les cyanobactéries en France">
<rect width="1160" height="560" fill="#F5F4F0"/>
<text x="78" y="30" font-size="17" font-weight="600" fill="#14161A" letter-spacing="-0.02em">Recherches Google « cyanobactéries » — France</text>
<text x="78" y="50" font-size="12.5" fill="#6B7280">30 requêtes vérifiées une par une · juil. 2025 → juin 2026 · source DataForSEO (Google Ads), relevé le 28.07.2026</text>
<line x1="78" y1="486.0" x2="1132" y2="486.0" stroke="#D8DCD8" stroke-width="1"/>
<text x="66" y="490.0" font-size="11.5" fill="#6B7280" text-anchor="end">0</text>
<line x1="78" y1="382.0" x2="1132" y2="382.0" stroke="#D8DCD8" stroke-width="1"/>
<text x="66" y="386.0" font-size="11.5" fill="#6B7280" text-anchor="end">25 000</text>
<line x1="78" y1="278.0" x2="1132" y2="278.0" stroke="#D8DCD8" stroke-width="1"/>
<text x="66" y="282.0" font-size="11.5" fill="#6B7280" text-anchor="end">50 000</text>
<line x1="78" y1="174.0" x2="1132" y2="174.0" stroke="#D8DCD8" stroke-width="1"/>
<text x="66" y="178.0" font-size="11.5" fill="#6B7280" text-anchor="end">75 000</text>
<line x1="78" y1="70.0" x2="1132" y2="70.0" stroke="#D8DCD8" stroke-width="1"/>
<text x="66" y="74.0" font-size="11.5" fill="#6B7280" text-anchor="end">100 000</text>
<rect x="94.7" y="470.9" width="54.5" height="15.1" fill="#C9CFCC"/>
<text x="121.9" y="508.0" font-size="12.5" font-weight="400" fill="#6B7280" text-anchor="middle">jan</text>
<text x="121.9" y="523.0" font-size="10" fill="#6B7280" text-anchor="middle">’26</text>
<rect x="182.5" y="472.1" width="54.5" height="13.9" fill="#C9CFCC"/>
<text x="209.7" y="508.0" font-size="12.5" font-weight="400" fill="#6B7280" text-anchor="middle">fév</text>
<text x="209.7" y="523.0" font-size="10" fill="#6B7280" text-anchor="middle">’26</text>
<rect x="270.4" y="467.7" width="54.5" height="18.3" fill="#C9CFCC"/>
<text x="297.6" y="459.7" font-size="12" font-weight="500" fill="#6B7280" text-anchor="middle">4 400</text>
<text x="297.6" y="508.0" font-size="12.5" font-weight="400" fill="#6B7280" text-anchor="middle">mars</text>
<text x="297.6" y="523.0" font-size="10" fill="#6B7280" text-anchor="middle">’26</text>
<rect x="358.2" y="454.8" width="54.5" height="31.2" fill="#C9CFCC"/>
<text x="385.4" y="446.8" font-size="12" font-weight="500" fill="#6B7280" text-anchor="middle">7 490</text>
<text x="385.4" y="508.0" font-size="12.5" font-weight="400" fill="#6B7280" text-anchor="middle">avr</text>
<text x="385.4" y="523.0" font-size="10" fill="#6B7280" text-anchor="middle">’26</text>
<rect x="446.0" y="448.7" width="54.5" height="37.3" fill="#C9CFCC"/>
<text x="473.2" y="440.7" font-size="12" font-weight="500" fill="#6B7280" text-anchor="middle">8 960</text>
<text x="473.2" y="508.0" font-size="12.5" font-weight="400" fill="#6B7280" text-anchor="middle">mai</text>
<text x="473.2" y="523.0" font-size="10" fill="#6B7280" text-anchor="middle">’26</text>
<rect x="533.9" y="408.7" width="54.5" height="77.3" fill="#00A87D"/>
<text x="561.1" y="400.7" font-size="12" font-weight="700" fill="#14161A" text-anchor="middle">18 580</text>
<text x="561.1" y="508.0" font-size="12.5" font-weight="600" fill="#14161A" text-anchor="middle">juin</text>
<text x="561.1" y="523.0" font-size="10" fill="#6B7280" text-anchor="middle">’26</text>
<rect x="621.7" y="280.5" width="54.5" height="205.5" fill="#00A87D"/>
<text x="648.9" y="272.5" font-size="12" font-weight="700" fill="#14161A" text-anchor="middle">49 400</text>
<text x="648.9" y="508.0" font-size="12.5" font-weight="600" fill="#14161A" text-anchor="middle">juil</text>
<text x="648.9" y="523.0" font-size="10" fill="#6B7280" text-anchor="middle">’25</text>
<rect x="709.5" y="105.4" width="54.5" height="380.6" fill="#00A87D"/>
<text x="736.7" y="97.4" font-size="12" font-weight="700" fill="#14161A" text-anchor="middle">91 480</text>
<text x="736.7" y="508.0" font-size="12.5" font-weight="600" fill="#14161A" text-anchor="middle">août</text>
<text x="736.7" y="523.0" font-size="10" fill="#6B7280" text-anchor="middle">’25</text>
<rect x="797.4" y="440.4" width="54.5" height="45.6" fill="#C9CFCC"/>
<text x="824.6" y="432.4" font-size="12" font-weight="500" fill="#6B7280" text-anchor="middle">10 950</text>
<text x="824.6" y="508.0" font-size="12.5" font-weight="400" fill="#6B7280" text-anchor="middle">sept</text>
<text x="824.6" y="523.0" font-size="10" fill="#6B7280" text-anchor="middle">’25</text>
<rect x="885.2" y="459.5" width="54.5" height="26.5" fill="#C9CFCC"/>
<text x="912.4" y="451.5" font-size="12" font-weight="500" fill="#6B7280" text-anchor="middle">6 380</text>
<text x="912.4" y="508.0" font-size="12.5" font-weight="400" fill="#6B7280" text-anchor="middle">oct</text>
<text x="912.4" y="523.0" font-size="10" fill="#6B7280" text-anchor="middle">’25</text>
<rect x="973.0" y="466.9" width="54.5" height="19.1" fill="#C9CFCC"/>
<text x="1000.2" y="458.9" font-size="12" font-weight="500" fill="#6B7280" text-anchor="middle">4 590</text>
<text x="1000.2" y="508.0" font-size="12.5" font-weight="400" fill="#6B7280" text-anchor="middle">nov</text>
<text x="1000.2" y="523.0" font-size="10" fill="#6B7280" text-anchor="middle">’25</text>
<rect x="1060.9" y="473.4" width="54.5" height="12.6" fill="#C9CFCC"/>
<text x="1088.1" y="508.0" font-size="12.5" font-weight="400" fill="#6B7280" text-anchor="middle">déc</text>
<text x="1088.1" y="523.0" font-size="10" fill="#6B7280" text-anchor="middle">’25</text>
<line x1="78" y1="486" x2="1132" y2="486" stroke="#14161A" stroke-width="1.5"/>
<text x="1088.1" y="463.4" font-size="11.5" fill="#6B7280" text-anchor="middle">3 040</text>
<line x1="78" y1="526" x2="1132" y2="526" stroke="#D8DCD8" stroke-width="1"/>
<text x="78" y="546" font-size="12" fill="#14161A"><tspan font-weight="600">75 % de la demande annuelle tombe sur juin, juillet et août.</tspan><tspan fill="#6B7280"> Le pic d’août vaut 30 fois le creux de décembre.</tspan></text>
</svg>