<svg xmlns="http://www.w3.org/2000/svg" viewBox="0 0 61 61"><defs><style>.cls-1{fill:#fff;}</style></defs><g id="Calque_2" data-name="Calque 2"><g id="Calque_1-2" data-name="Calque 1"><path class="cls-1" d="M0,50.5A10.51,10.51,0,0,0,10.5,61h17A1.52,1.52,0,0,0,29,59.5v-26A1.52,1.52,0,0,0,27.5,32H1.5A1.52,1.52,0,0,0,0,33.5Z"/><path class="cls-1" d="M1.5,29h26A1.52,1.52,0,0,0,29,27.5V1.5A1.52,1.52,0,0,0,27.5,0h-17A10.51,10.51,0,0,0,0,10.5v17A1.52,1.52,0,0,0,1.5,29Z"/><path class="cls-1" d="M59.5,29A1.52,1.52,0,0,0,61,27.5v-17A10.51,10.51,0,0,0,50.5,0h-17A1.52,1.52,0,0,0,32,1.5v26A1.52,1.52,0,0,0,33.5,29Z"/><path class="cls-1" d="M36,50.53h6.44V57a4,4,0,0,0,8.06,0V50.53H57a4,4,0,0,0,0-8.06H50.53V36a4,4,0,0,0-8.06,0v6.44H36a4,4,0,0,0,0,8.06Z"/></g></g></svg>