<svg xmlns="http://www.w3.org/2000/svg" viewBox="0 0 100 100"><defs><style>.cls-1{fill:#fff;}</style></defs><g id="Calque_2" data-name="Calque 2"><g id="Calque_1-2" data-name="Calque 1"><path class="cls-1" d="M98.44,43.73c-.8-.51-7.11-4.28-9.61-5.43l-3.1-7.5c.92-2.48,2.69-9.43,3-10.64a3.35,3.35,0,0,0-.9-3.1L82.94,12.2a3.3,3.3,0,0,0-3.1-.9c-.92.21-8,2-10.64,3l-7.5-3.1c-1.09-2.4-4.76-8.55-5.43-9.61A3.3,3.3,0,0,0,53.44,0H46.56a3.34,3.34,0,0,0-2.83,1.56c-.51.8-4.28,7.11-5.43,9.61l-7.5,3.1c-2.48-.92-9.43-2.69-10.64-3a3.35,3.35,0,0,0-3.1.9L12.2,17.06a3.3,3.3,0,0,0-.9,3.1c.21.92,2,8,3,10.64l-3.1,7.5c-2.4,1.09-8.55,4.76-9.61,5.43A3.3,3.3,0,0,0,0,46.56v6.87a3.34,3.34,0,0,0,1.56,2.83c.8.51,7.11,4.28,9.61,5.43l3.1,7.5c-.92,2.48-2.69,9.43-3,10.64a3.35,3.35,0,0,0,.9,3.1L17,87.79a3.3,3.3,0,0,0,3.1.9c.92-.21,8-2,10.64-3l7.5,3.1c1.09,2.4,4.76,8.55,5.43,9.61a3.32,3.32,0,0,0,2.86,1.6h6.87a3.34,3.34,0,0,0,2.83-1.56c.51-.8,4.28-7.11,5.43-9.61l7.5-3.1c2.48.92,9.43,2.69,10.64,3a3.35,3.35,0,0,0,3.1-.9L87.79,83a3.3,3.3,0,0,0,.9-3.1c-.21-.92-2-8-3-10.64l3.1-7.5c2.4-1.09,8.55-4.76,9.61-5.43a3.32,3.32,0,0,0,1.6-2.86V46.56A3.3,3.3,0,0,0,98.44,43.73ZM50,71.77A21.79,21.79,0,1,1,71.81,50,21.8,21.8,0,0,1,50,71.77Z"/></g></g></svg>