<svg xmlns="http://www.w3.org/2000/svg" viewBox="0 0 87.5 87.5"><defs><style>.cls-1{fill:#fff;}</style></defs><g id="Calque_2" data-name="Calque 2"><g id="Calque_1-2" data-name="Calque 1"><path class="cls-1" d="M81.25,0h-75A6.27,6.27,0,0,0,0,6.25V14H87.5V6.25A6.27,6.27,0,0,0,81.25,0Z"/><path class="cls-1" d="M0,81.25A6.27,6.27,0,0,0,6.25,87.5h75a6.27,6.27,0,0,0,6.25-6.25v-61H0Zm55-35.5a3.12,3.12,0,1,1,3.83-4.93l11.61,9a3.12,3.12,0,0,1,0,4.93l-11.61,9A3.12,3.12,0,0,1,55,58.89l8.44-6.57ZM37.31,63.88l6.87-24.8a3.12,3.12,0,0,1,6,1.66L43.33,65.55a3.13,3.13,0,0,1-3,2.29,3,3,0,0,1-.84-.12,3.1,3.1,0,0,1-2.17-3.84Zm-20.22-14,11.6-9a3.12,3.12,0,0,1,3.84,4.93l-8.44,6.57,8.44,6.57a3.13,3.13,0,0,1-1.92,5.59,3.06,3.06,0,0,1-1.92-.66l-11.6-9a3.12,3.12,0,0,1,0-4.93Z"/></g></g></svg>