<svg xmlns="http://www.w3.org/2000/svg" viewBox="0 0 145.62 145.62" width="145.62" height="145.62">
  <defs>
    <style>
      .logo-fill { fill: #00140e; stroke: #000; stroke-miterlimit: 10; }
      .logo-bg { fill: none; }
      @media (prefers-color-scheme: dark) {
        .logo-fill { fill: #ffffff; stroke: #ffffff; }
      }
    </style>
  </defs>
  <g>
    <path class="logo-fill" d="M55.66,23.24c3.19-.59,12.81-1.93,21.6,3.61a30.87,30.87,0,0,1,8.48,8.23,34.48,34.48,0,0,1,6.71,21.25l24.16-21.89c-.5-4-2.19-12.62-9.23-19.61a31.11,31.11,0,0,0-5.7-4.43C98.86,8.63,89.34,2.67,77.39,5.09A29.88,29.88,0,0,0,64.74,11,30.19,30.19,0,0,0,55.66,23.24Z"/>
    <path class="logo-fill" d="M95.1,82.78l21.51-19.87a139.49,139.49,0,0,0,.13,20.88,42.38,42.38,0,0,1,0,9.36,35,35,0,0,1-3,11.14,30.73,30.73,0,0,1-9.36,11.89,29.65,29.65,0,0,1-9.11,4.68Q95.17,101.83,95.1,82.78Z"/>
    <path class="logo-fill" d="M28.61,111.31l24.3-22.59c-.14,3.61,0,14,7,23a29.06,29.06,0,0,0,9.68,8.16,30,30,0,0,0,13.09,3.23,33.21,33.21,0,0,0,7.22-.57c-1.19,2.82-6.08,13.52-17.09,17.27a29.56,29.56,0,0,1-12.33,1.14c-3.45-.26-11.77-1-19.36-6.84C30.74,126.07,29,114,28.61,111.31Z"/>
    <path class="logo-fill" d="M29,82.94,50.44,63.1q.09-19.31.19-38.62A35.61,35.61,0,0,0,34.21,37.29a32.52,32.52,0,0,0-4.08,8.64A30.55,30.55,0,0,0,29,56.74Z"/>
    <rect class="logo-bg" width="145.62" height="145.62"/>
  </g>
</svg>