<svg xmlns="http://www.w3.org/2000/svg" viewBox="0 0 61.01 89.89"><defs><style>.cls-1{fill:#00d3f3;}</style></defs><g id="Calque_2" data-name="Calque 2"><g id="Calque_1-2" data-name="Calque 1"><path class="cls-1" d="M33.17,30.45c-1.18-1.87-2.93-13.11-3.7-18.88a.26.26,0,0,0-.09-.17.22.22,0,0,0-.19,0,.25.25,0,0,0-.21.28c.09.7,2.31,17.1,3.86,19.19h0a.28.28,0,0,0,.17.11c.25,0,25.15,3.68,27.28,23h0a34.14,34.14,0,0,1-8.18,26.5c-5,5.64-11.66,8.89-18.15,8.92h-.1c-8.3,0-19.87-3.52-27.11-11.43h0A22.54,22.54,0,0,1,.61,60.05c1.77-19,17.79-26.4,18-26.48a.25.25,0,0,0,.14-.16c0-.12,3.27-11.89-3.12-21.6h1.1c5.36,0,12.91-1.79,15-3.81a1.38,1.38,0,0,0,.53-1A1.4,1.4,0,0,0,31.91,6c-2.19-2.72-3.8-2.81-4.5-2.68A5.2,5.2,0,0,0,26.47.75C25.2-1.16,16.83,1.07,15.2,2S13.88,5.16,14,6c-.77.23-3.16,1-3.5,2.52-.17.75.22,1.52,1.14,2.3a6.11,6.11,0,0,0,3.29,1c6.21,9.09,3.6,20.2,3.28,21.41C16.81,33.88,1.82,41.54.11,60h0a23.36,23.36,0,0,0,6.25,18.3c7.34,8,19.11,11.63,27.48,11.57H34c6.62,0,13.37-3.33,18.51-9.09h0a34.65,34.65,0,0,0,8.31-26.86c-2.1-19.1-25.76-23.21-27.6-23.5ZM14.57,6.07s-.73-2.76.87-3.64c2-1.06,9.65-2.82,10.59-1.38h0a4,4,0,0,1,.88,2.54A7.45,7.45,0,0,1,21.32,9c-2.73.59-4.36,0-5.25-.68a3.38,3.38,0,0,1-1.49-2.23v0ZM20.63,50a3,3,0,1,1,3-3,3,3,0,0,1-3,3Zm11.23-8.83h0a3,3,0,1,1-3-3,3,3,0,0,1,3,3Zm4.7,5h0A2.37,2.37,0,1,1,39,43.79a2.39,2.39,0,0,1-2.39,2.37ZM20.2,52.52l1.73.92c2.91,1.55,5.22,2.78,7.41,2.71h0a6.93,6.93,0,0,1-5,3.43C19.81,60.37,12,57.14,9.47,56c.18-.83.38-1.63.64-2.45a.18.18,0,0,1,.07-.11,9,9,0,0,1,10-.87Zm13.27,1.66A25.18,25.18,0,0,0,36,51.27c2.48-3.18,4.63-5.91,10.9-2.22,4.21,2.48,6.68,10.43,5.62,18.09-1.17,8.49-6.17,14.5-13.73,16.48a25.56,25.56,0,0,1-6.74.88,23.75,23.75,0,0,1-17.24-7.11C9.62,72,7.67,64.46,9.29,56.49c2.43,1.08,8.78,3.72,13.41,3.72a10.11,10.11,0,0,0,1.65-.14,7.5,7.5,0,0,0,5.53-4,6.45,6.45,0,0,0,3.59-1.89Z"/></g></g></svg>